# xmcd CD database file
#
# Track frame offsets:
#	150
#	27954
#	52300
#	70392
#	89328
#	107482
#	124532
#	140939
#	162570
#	182399
#
# Disc length: 2709 seconds
#
# Revision: 0
# Processed by: cddbd v1.5.2PL0 Copyright (c) Steve Scherf et al.
# Submitted via: CDex 1.70beta2
#
DISCID=8f0a930a
DTITLE=Scanner with the Post Modern Jazz Quartet - Blink Of An Eye 
DYEAR=2010
DGENRE=Jazz
TTITLE0=Shadow Splice
TTITLE1=C Jam Blues
TTITLE2=A Galaxy Of Winking Dots
TTITLE3=Not A Frame Eariler or Later
TTITLE4=Involuntary Re Ex
TTITLE5=Most With The Least
TTITLE6=Dreaming With You At My Side
TTITLE7=The Decisive Moment
TTITLE8=Cuts And Shadows
TTITLE9=Beyond The Edge Of The Frame
EXTD=YEAR: 2010
EXTT0=
EXTT1=
EXTT2=
EXTT3=
EXTT4=
EXTT5=
EXTT6=
EXTT7=
EXTT8=
EXTT9=
PLAYORDER=
